<?xml version="1.0" encoding="UTF-8"?>
<svg version="1.1" viewBox="0 0 2000 2000" width="500" height="500" xmlns="http://www.w3.org/2000/svg">
<path transform="translate(0)" d="m0 0h2e3v2e3h-2e3z" fill="#FDFEFD"/>
<path transform="translate(1380,510)" d="m0 0h17l14 2 16 5 13 7 9 7 7 7 9 15 6 18 2 17-1 20-6 30 16-4 42-11 3-3 6-26 5-12 4-6 4-3h6l4 4 3 7v19l-1 3-6 4h-2l-1 7 34-5 38-6 28-3h23l10 4 5 4 1 6-5 5-6-1-4-2-11-1-34 3-32 5-44 8-7 2-8 79-2 23-1 23-1 7v47l-1 26v111l3 31v11l-4 8-5 3-6-2-5-8-2-12-1-19-1-39v-61l3-124 2-31 6-67-10 1-44 11-9 4-10 18-8 16-16 26-10 14-9 12-11 13-9 11-15 16-11 12-10 10-8 7-7 7-8 7-16 15-15 13-28 21-4 4-3 10-2 34-1 13 2 4 21 13 16 11 18 14 14 11 18 14 13 11 10 8 17 14 14 11 13 11 14 11 17 14 19 14 13 10 21 16 9 7 1 3v8l-4 2-7-1-15-9-19-14-13-10-18-14-15-12-14-11-25-20-14-11-8-7-11-9-16-13-28-22-14-10-13-9-12-7-4-1-1 7-1 47v74l1 33 2 24 3 20v8l-4 5-2 1h-6l-6-4-5-8-4-15-2-16-2-47-1-29v-35l1-49v-31l-9-4-18-5-19-3h-19l-9 2-9-1-4-5v-6l5-6 10-5 19-9 16-10 18-11 12-8 11-8 1-2 1-26 3-36 4-39 8-59 9-54 7-35 11-43-5 2-11 9-10 9-8 7-9 9-9 11-11 13-11 15-10 15-8 13-12 21-11 22-8 19-8 22-6 22-4 24v23l3 9h12l2 2 1 5-3 5-8 4h-10l-6-3-5-10-2-10v-36l3-19 7-25 10-26 11-24 10-19 8-14 12-20 8-12 12-17 13-16 14-15 10-10 14-11 15-13 17-12 25-14 25-11 16-5 18-4z" fill="#03644B"/>
<path transform="translate(1385,530)" d="m0 0h9l16 2 12 5 9 7 8 8 6 11 3 9 1 6v15l-3 21-6 21-5 13-9 4-20 7-18 7-17 9-8 7-2 4 1 7 4 2h13l1-6 6-5 23-11 12-5 3 1-8 15-24 36-9 12-13 16-12 14-11 12-9 10-30 30-8 7-14 12-13 10-7 5h-3v-12l4-36 13-101 9-52 13-64 4-18 2-10 5-5 25-11 21-6 11-2z" fill="#FEFFFE"/>
<path transform="translate(456,565)" d="m0 0h6l3 9 11 81 4 41 1 25v14l-3 49-4 40-7 45-10 52-9 41-13 52-9 31-8 25-8 22-7 16-11 20-7 8-9 6-4 1h-9l-7-3-8-7-8-14-9-24-8-29-7-33-8-50-5-39-4-38-3-32-5-75-4-70-4-38-3-15-3-3-4 16-12 45-8 35-13 65-8 44-8 52-5 44-4 44-3 42-1 27v33l2 27v11l-3 5-3 3-6-1-3-7-3-40v-53l3-50 5-57 6-52 9-53 16-80 13-57 10-37 6-18 6-12 6-5 9-2 6 3 5 6 5 13 5 22 4 26 3 29 11 165 5 53 6 54 5 32 7 35 6 21 6 16 6 8 5 1 6-4 6-7 7-12 10-24 12-36 10-34 15-60 13-63 9-57 5-48 2-33v-50l-4-43-8-67-1-18z" fill="#03654C"/>
<path transform="translate(977,484)" d="m0 0h28l30 2 34 4 23 4 30 7 24 7 25 9 23 10 25 12 17 9 8 5-5 5-9 7-4 4h-2v2l-4 3-4-1-26-13-28-12-24-9-32-9-42-9-21-3-30-2h-47l-29 2-32 5-31 7-33 9-26 10-30 13-23 12-23 14-24 16-10 8-14 11-8 7-1-3v-9l-2-10-4-6v-2l-3-1 1-3 14-10 16-12 20-13 15-9 21-12 23-12 29-12 24-8 39-11 29-6 31-4 23-2z" fill="#132D2A"/>
<path transform="translate(651,611)" d="m0 0 8 1 4 4 1 5-8 43-6 38-7 60-2 18-4 52-1 21-1 45h3l3-9 14-27 12-23 13-23 11-19 12-18 9-10 4-3h6l5 3-1 6-10 16-8 11-11 17-7 14-1 10 4 34 8 38 8 28 6 15 7 14-1 4-4 4-5 1-8-5-6-9-6-13-8-26-6-23-7-33-2-1-6 14-6 12-9 21-8 27-5 16-5 7-6 1-4-2-3-8-1-23-1-73h-2l-8 10-11 12-13 13-14 11-12 6-7 2h-13l-9-3-10-8-7-11-5-14-4-24v-23l3-24 5-19 6-9 3-2h7l4 2 2 4v9l-6 36-1 10v22l3 15 4 12 4 6 4 3h10l12-6 13-10 7-7 7-6 11-14 13-16h2l2-4 1-7 2-47 3-43 5-44 6-36 5-22 5-15 5-8z" fill="#03654C"/>
<path transform="translate(767,611)" d="m0 0 9 2 3 3v11l-8 42-7 48-7 63-4 52-1 22-1 44 4-4 8-17 20-38 13-23 11-19 12-18 9-10 5-3 7 1 3 2-1 6-7 11-17 25-10 16-3 10 1 17 3 23 8 38 8 28 6 15 7 14-1 4-4 4-5 1-8-5-6-9-7-16-10-33-9-41-2-6-2 2-5 12-6 12-9 21-8 27-6 18-4 5-6 1-4-2-3-7-1-24v-102l1-35 3-48 4-40 7-47 6-27 6-18 5-7z" fill="#03654C"/>
<path transform="translate(1591,672)" d="m0 0h7l3 1 1 5-1 16-8 46-5 41-3 32-2 35-1 31v17l2 46h2l3-11 12-35 10-23 8-17 12-22 7-11 8-6 4-1h8l5 7 3 16 1 34 3 17 3 9 5-1 10-8 7-8 8-12 12-20 9-16 6-7 2-1h6l2 4-1 10-12 22-11 18-9 12-9 10-9 8-8 4-3 1h-9l-9-6-5-10-3-11-2-15-2-33-4 2-12 23-8 18-8 19-8 23-8 28-6 20-4 6-4 3h-9l-5-5-4-9-4-20-3-25-1-13v-59l3-50 4-43 5-27 9-39 5-15z" fill="#03654C"/>
<path transform="translate(496,912)" d="m0 0 10 10 7 6 10 5v10l-1 14v20l1 34 3 31 4 26 6 28 8 29 10 29 1 5-24 9-5-1-9-25-9-29-6-26-5-26-4-34-1-17v-64l2-26 1-7z" fill="#132E2B"/>
<path transform="translate(1461,780)" d="m0 0 7 1 4 5v6l-7 8v5l10 14 5 12 2 10v15l-3 19-7 21-6 11-9 11-7 5-8 3h-9l-8-4-6-8-4-10-2-14 1-14 6-25 8-24 9-20 9-15 7-8z" fill="#03654C"/>
<path transform="translate(866,780)" d="m0 0 9 1 4 4v10l-6 35-1 13v19l3 16 4 12 4 6 4 3h10l12-6 12-9 9-9 6-5 11-14 13-15 2-3h2l2-4 9-7 3-2 5 1v8l-7 12-11 14-12 14-8 8-7 8-8 8-10 8-9 6-10 4-5 1h-11l-11-4-8-6-7-10-6-15-4-24v-25l3-23 5-19 5-8z" fill="#03654C"/>
<path transform="translate(1482,917)" d="m0 0 2 1 2 13 2 26 1 24v15l-1 25-4 36-4 24-1 3-4-1-16-13-7-5 1-11 4-35 1-20v-24l-2-33 10-7 9-8z" fill="#132E2A"/>
<path transform="translate(610,659)" d="m0 0 2 1-7 50-2 9-11 17-7 11-6 12-9 16-7 15-10 24-7 19-2 2v-9l4-28v-19l-5-10-2-2 1-5 6-11 10-7 5-4 5-9 3-8 1-12 6-10 10-14 10-13 8-10z" fill="#132F2B"/>
<path transform="translate(1156,1403)" d="m0 0h10l5 4 3 7v8l-3 5h6l6 4 4 9-1 9-7 8-13 6-15 6-3-1-14-37-6-16 1-3 19-7z" fill="#132F2B"/>
<path transform="translate(1317,608)" d="m0 0 4 2 8 7 10 9 21 21 5 6-1 4-11 8-8 10-4-1-15-16-15-15 2-15 3-18z" fill="#132D2A"/>
<path transform="translate(576,1175)" d="m0 0h5l11 22 2 6v8l-4 6-5 4-6 2-9-1-8-7-9-17-5 1-16 8-4-1-1-5 22-12z" fill="#13302B"/>
<path transform="translate(1453,821)" d="m0 0 4 1 3 3 3 11v19l-4 20-5 13-7 11-5 5-4-1-2-3-1-7v-12l3-15 6-20 7-19z" fill="#FEFFFE"/>
<path transform="translate(1252,1349)" d="m0 0 5 1 32 22 17 13-4 4-5-1-10-7-4-1-11 8-6 4h-2l5 18-1 3-6 1-4-16-10-39v-7z" fill="#12302C"/>
<path transform="translate(1051,1429)" d="m0 0h8v6l-23 3-11 1-1 3 1 12 1 2 26-2h7v6l-11 2-21 2 1 19 2 2 28-3h7v6l-33 4h-11l-2-15-4-44 16-2z" fill="#132F2B"/>
<path transform="translate(799,1393)" d="m0 0 5 1-1 8-7 19 20-8 17-6 7 1 2 3-25 10-5 3 8 38v4l-6-2-3-4-7-31-1-2-6 2-5 3-8 16-2 3-5-2 1-7 11-28 8-19z" fill="#132F2B"/>
<path transform="translate(697,1337)" d="m0 0h10l8 3 6 4 6 8 2 5v9l-2 5-3 1-2-1v-12l-4-8-5-4-5-2h-9l-8 4-5 5-4 5-4 9v10l3 6 5 5 7 2 8-1 10-4 3 2-2 4-7 4-5 2h-8l-8-3-8-6-5-7-2-8 1-9 4-10 8-10 9-6z" fill="#12302C"/>
<path transform="translate(1437,1124)" d="m0 0 9 6 16 12-2 10-6 15-6-1-20-8-2-1 1-6 8-22z" fill="#132E2A"/>
<path transform="translate(1428,746)" d="m0 0h2l10 21-1 5-6 5-7 11-5 8-3-1-8-18-2-5 6-9 6-7z" fill="#132E2A"/>
<path transform="translate(536,694)" d="m0 0 7 1 5 5 4 9v12l-4 6-7 4h-6l-7-4-3-6v-13l5-10h2v-2z" fill="#03654C"/>
<path transform="translate(886,694)" d="m0 0 6 1 5 5 4 9 1 7-3 8-7 6-2 1-9-1-6-7-1-2v-13l4-8 5-5z" fill="#03654C"/>
<path transform="translate(910,1427)" d="m0 0 7 1-2 19-5 34 18 2 11 2 1 1v5l-15-1-23-3-1-3 8-56z" fill="#13302B"/>
<path transform="translate(1167,1432)" d="m0 0 9 2 4 6v7l-5 5-4 3-18 6-6-17v-5z" fill="#FEFFFE"/>
<path transform="translate(1450,1194)" d="m0 0 5 3-8 16-9 17-5-1-17-9-16-8-14-8-1-4 4-3 23 12 21 11h3l10-21z" fill="#12322D"/>
<path transform="translate(1324,1285)" d="m0 0 5 1 28 24 8 7v2l5-4 9-11 6-7 3-1 3 2-1 4-9 10-9 11-4 5-4-1v-2l-4-2-10-9-11-9-12-11-5-4z" fill="#12332D"/>
<path transform="translate(575,1183)" d="m0 0 4 1 8 17v9l-8 6h-7l-6-7-7-13 1-4 14-8z" fill="#FEFFFE"/>
<path transform="translate(1158,1409)" d="m0 0 6 1 3 5 1 7-5 5-11 5-8 2-4-8-3-10 12-5z" fill="#FEFFFE"/>
<path transform="translate(1231,901)" d="m0 0h3l-1 28-7-1-22-6-2-2 5-5 23-13z" fill="#FEFFFE"/>
<path transform="translate(640,1272)" d="m0 0 4 1 1 4-7 7-11 9-13 11-11 9-4 1-3-3 2-4 15-13 11-9 12-10z" fill="#132E2B"/>
<path transform="translate(806,1597)" d="m0 0 6 1 5 4 2 8-2 6-4 4-9 1-6-7v-10l2-4z" fill="#FEFFFE"/>
<path transform="translate(1255,1358)" d="m0 0 7 4 12 9 4 4-4 4-9 6-4-1-6-22z" fill="#FEFFFE"/>
<path transform="translate(805,1594)" d="m0 0 9 1 5 4 3 6v8l-4 7-7 4h-8l-7-6-2-5v-8l3-6 5-4zm1 3-6 3-2 4v10l6 7 9-1 5-5 1-6-3-8-6-4z" fill="#12312C"/>
<path transform="translate(1246,1595)" d="m0 0h20v3l-16 1v8h14v3l-14 2v8h16l1 3h-21z" fill="#0C4639"/>
<path transform="translate(742,1594)" d="m0 0h7l6 4 1 6-9-6-6 1-3 3-2 8 2 6 4 4 8-1 7-7-1 6-5 5-3 1h-8l-5-4-3-6v-10l4-7z" fill="#12312C"/>
<path transform="translate(1036,1594)" d="m0 0 9 1 5 4 1 5-9-6-7 1-3 2-1 3v11l5 5 7-1 8-6-1 5-5 5-3 1h-8l-6-5-2-5v-9l3-6 5-4z" fill="#12322D"/>
<path transform="translate(969,1595)" d="m0 0h19v3h-16v10l5-1h9l1 3h-15v11h17v2h-21v-18z" fill="#11352E"/>
<path transform="translate(1185,1595)" d="m0 0 4 1 5 12 3 9 2-2 5-14 2-6h3l-3 11-6 16-4 2-5-11-6-16z" fill="#12312C"/>
<path transform="translate(1091,1595)" d="m0 0h18v2l-9 2-1 24h-3v-25h-7l-4-2z" fill="#12322D"/>
<path transform="translate(913,1595)" d="m0 0h3v25l15 1v2h-18z" fill="#132D2A"/>
<path transform="translate(860,1595)" d="m0 0 3 1v14l1 10 13 1v2h-18v-27z" fill="#103730"/>
<path transform="translate(1146,1595)" d="m0 0h2v28h-3v-27z" fill="#12312C"/>
<path transform="translate(1246,1595)" d="m0 0h20v3l-16 1-1 5-3 3z" fill="#132E2A"/>
<path transform="translate(1246,1618)" d="m0 0h4v2h16l1 3h-21z" fill="#132F2B"/>
<path transform="translate(1250,1607)" d="m0 0h14v3l-14 1z" fill="#055B46"/>
<path transform="translate(1091,1595)" d="m0 0h18v2l-10 2v-2l-8-1z" fill="#0B483A"/>
<path transform="translate(1258,1595)" d="m0 0h8v3h-13l1-2z" fill="#0E3F35"/>
<path transform="translate(1280,1367)" d="m0 0 5 2 8 6v2l-4-2-9-6z" fill="#03634A"/>
</svg>
